<?xml version="1.0" encoding="UTF-8" standalone="no"?>
<!DOCTYPE svg PUBLIC "-//W3C//DTD SVG 1.1//EN" "http://www.w3.org/Graphics/SVG/1.1/DTD/svg11.dtd">
<svg version="1.1" xmlns="http://www.w3.org/2000/svg" xmlns:xlink="http://www.w3.org/1999/xlink" preserveAspectRatio="xMidYMid meet" viewBox="0 0 330 230" width="330" height="230"><defs><path d="M123.3 127.14C123.3 156.26 99.66 179.91 70.54 179.91C41.41 179.91 17.77 156.26 17.77 127.14C17.77 98.02 41.41 74.38 70.54 74.38C99.66 74.38 123.3 98.02 123.3 127.14Z" id="b4ejv5CxdI"></path><path d="M321.21 126.44C321.21 155.56 297.57 179.21 268.45 179.21C239.33 179.21 215.68 155.56 215.68 126.44C215.68 97.32 239.33 73.68 268.45 73.68C297.57 73.68 321.21 97.32 321.21 126.44Z" id="c1DRyXULYr"></path><path d="M189.3 85.58L215.68 45.53L162.92 45.53L110.15 45.53L136.53 85.58L162.92 125.63L189.3 85.58Z" id="fmpPIn325"></path><path d="M245.29 87.38L271.68 127.43L218.91 127.43L166.15 127.43L192.53 87.38L218.91 47.33L245.29 87.38Z" id="b54YscfubQ"></path><path d="M67.74 129.24L123.3 13.06L67.74 129.24Z" id="k1mcmpg0k3"></path><path d="M81.02 14.18L123.3 13.06" id="b4pSSfRJa"></path><path d="M215.68 47.33L223.77 27.5" id="b3wBSemtP9"></path><path d="M245.39 27.93C245.39 30.59 235.05 32.74 222.32 32.74C209.59 32.74 199.26 30.59 199.26 27.93C199.26 25.28 209.59 23.12 222.32 23.12C235.05 23.12 245.39 25.28 245.39 27.93Z" id="d23K3UolX8"></path></defs><g><g><g><g><filter id="shadow140760" x="8.77" y="65.38" width="124.53" height="124.53" filterUnits="userSpaceOnUse" primitiveUnits="userSpaceOnUse"><feFlood></feFlood><feComposite in2="SourceAlpha" operator="in"></feComposite><feGaussianBlur stdDeviation="1"></feGaussianBlur><feOffset dx="1" dy="1" result="afterOffset"></feOffset><feFlood flood-color="#000000" flood-opacity="0.5"></feFlood><feComposite in2="afterOffset" operator="in"></feComposite><feMorphology operator="dilate" radius="1"></feMorphology><feComposite in2="SourceAlpha" operator="out"></feComposite></filter><path d="M123.3 127.14C123.3 156.26 99.66 179.91 70.54 179.91C41.41 179.91 17.77 156.26 17.77 127.14C17.77 98.02 41.41 74.38 70.54 74.38C99.66 74.38 123.3 98.02 123.3 127.14Z" id="b1OsMMgyae" fill="white" fill-opacity="1" filter="url(#shadow140760)"></path></g><g><use xlink:href="#b4ejv5CxdI" opacity="1" fill-opacity="0" stroke="#6b655d" stroke-width="5" stroke-opacity="1"></use></g></g><g><g><filter id="shadow11581467" x="206.68" y="64.68" width="124.53" height="124.53" filterUnits="userSpaceOnUse" primitiveUnits="userSpaceOnUse"><feFlood></feFlood><feComposite in2="SourceAlpha" operator="in"></feComposite><feGaussianBlur stdDeviation="1"></feGaussianBlur><feOffset dx="1" dy="1" result="afterOffset"></feOffset><feFlood flood-color="#000000" flood-opacity="0.5"></feFlood><feComposite in2="afterOffset" operator="in"></feComposite><feMorphology operator="dilate" radius="1"></feMorphology><feComposite in2="SourceAlpha" operator="out"></feComposite></filter><path d="M321.21 126.44C321.21 155.56 297.57 179.21 268.45 179.21C239.33 179.21 215.68 155.56 215.68 126.44C215.68 97.32 239.33 73.68 268.45 73.68C297.57 73.68 321.21 97.32 321.21 126.44Z" id="a5IhECGz6" fill="white" fill-opacity="1" filter="url(#shadow11581467)"></path></g><use xlink:href="#c1DRyXULYr" opacity="1" fill="#262219" fill-opacity="1"></use><g><use xlink:href="#c1DRyXULYr" opacity="1" fill-opacity="0" stroke="#262219" stroke-width="5" stroke-opacity="1"></use></g></g><g><use xlink:href="#fmpPIn325" opacity="1" fill="#302816" fill-opacity="1"></use><g><use xlink:href="#fmpPIn325" opacity="1" fill-opacity="0" stroke="#262219" stroke-width="5" stroke-opacity="1"></use></g></g><g><g><use xlink:href="#b54YscfubQ" opacity="1" fill-opacity="0" stroke="#262219" stroke-width="5" stroke-opacity="1"></use></g></g><g><g><use xlink:href="#k1mcmpg0k3" opacity="1" fill-opacity="0" stroke="#262219" stroke-width="4" stroke-opacity="1"></use></g></g><g><g><use xlink:href="#b4pSSfRJa" opacity="1" fill-opacity="0" stroke="#262219" stroke-width="4" stroke-opacity="1"></use></g></g><g><g><use xlink:href="#b3wBSemtP9" opacity="1" fill-opacity="0" stroke="#262219" stroke-width="7" stroke-opacity="1"></use></g></g><g><use xlink:href="#d23K3UolX8" opacity="1" fill="#262219" fill-opacity="1"></use></g></g></g></svg>